<svg width="670" height="130" viewBox="0 0 670 130" fill="none" xmlns="http://www.w3.org/2000/svg">
<path opacity="0.116676" d="M0 32C0 20.7989 0 15.1984 2.17987 10.9202C4.09734 7.15695 7.15695 4.09734 10.9202 2.17987C15.1984 0 20.799 0 32 0H638C649.201 0 654.802 0 659.08 2.17987C662.843 4.09734 665.903 7.15695 667.82 10.9202C670 15.1984 670 20.799 670 32V98C670 109.201 670 114.802 667.82 119.08C665.903 122.843 662.843 125.903 659.08 127.82C654.802 130 649.201 130 638 130H32C20.799 130 15.1984 130 10.9202 127.82C7.15695 125.903 4.09734 122.843 2.17987 119.08C0 114.802 0 109.201 0 98V32Z" fill="#44B77B"/>
</svg>
